<?xml version="1.0" encoding="iso-8859-1"?>
<!-- Generator: Adobe Illustrator 18.1.1, SVG Export Plug-In . SVG Version: 6.00 Build 0)  -->
<svg version="1.1" id="Capa_1" xmlns="http://www.w3.org/2000/svg" xmlns:xlink="http://www.w3.org/1999/xlink" x="0px" y="0px"
	 viewBox="0 0 456.556 456.556" style="enable-background:new 0 0 456.556 456.556;" xml:space="preserve">
<g>
	<path d="M228.278,456.556C102.403,456.556,0,354.153,0,228.278S102.403,0,228.278,0c42.641,0,84.233,11.834,120.287,34.228
		c6.301,3.91,8.232,12.19,4.322,18.492c-3.917,6.301-12.197,8.246-18.492,4.322c-31.794-19.751-68.49-30.185-106.117-30.185
		c-111.065,0-201.422,90.36-201.422,201.422S117.213,429.7,228.278,429.7c111.062,0,201.422-90.36,201.422-201.422
		c0-22.324-3.623-44.243-10.77-65.147c-2.399-7.015,1.35-14.652,8.365-17.051c7.029-2.385,14.652,1.35,17.051,8.365
		c8.099,23.709,12.211,48.551,12.211,73.834C456.556,354.153,354.153,456.556,228.278,456.556z"/>
	<path d="M228.278,305.727c-3.406,0-6.7-1.294-9.193-3.644L111.66,201.17c-5.406-5.077-5.672-13.575-0.594-18.981
		c5.078-5.399,13.575-5.679,18.981-0.587l97.092,91.206L403.564,63.371c4.77-5.672,13.246-6.399,18.918-1.616
		c5.672,4.777,6.399,13.246,1.616,18.918L238.545,300.951c-2.371,2.818-5.805,4.539-9.484,4.756
		C228.803,305.72,228.537,305.727,228.278,305.727z"/>
</g>
<g>
</g>
<g>
</g>
<g>
</g>
<g>
</g>
<g>
</g>
<g>
</g>
<g>
</g>
<g>
</g>
<g>
</g>
<g>
</g>
<g>
</g>
<g>
</g>
<g>
</g>
<g>
</g>
<g>
</g>
</svg>
